:SAMPLES-PER-SECOND 30
:FULLY-SPECIFIED
:DEGREES
360
root  13.5849 38.6103 -2.94243 -46.7432 -77.2908 41.7961
RightUpLeg  0.441699 1.81096 -15.5456
RightLeg  56.841 1.95852 2.78157
RightFoot  13.8548 -1.70704 8.03257
RightToes  0.000482159 0.542163 -0.142577
Spine  13.5533 2.42725 -7.21278
Spine1  8.14829 2.71467 -4.04648
HEad  -4.06583 -9.62846 4.83835
LeftShoulder1  7.72476 -11.9418 -43.5101
LeftArm  -9.99297 24.6163 -24.75
LeftForeArm  29.3857 -21.4077 -3.34616
LeftHand  -0.25398 0.0180481 5.50724
RightShoulder  5.3971 9.16982 36.589
RightArm  -3.69962 -18.8795 36.3253
RightForeArm  -11.9319 16.9577 6.63802
RightHand  -8.3761 20.3095 -36.9489
LeftUpLeg  -14.9581 13.1581 -11.2742
LeftLeg  24.7781 7.19158 3.95337
LeftFoot  -5.25531 -0.289033 6.01391
LeftToes  1.06246e-005 4.65854e-005 -8.18502e-006
361
root  12.3109 38.9864 -2.43456 -51.5964 -78.9168 46.0648
RightUpLeg  -5.53543 1.28814 -14.7791
RightLeg  62.5449 -0.211791 -0.947495
RightFoot  14.0521 -1.19486 5.69032
RightToes  0.000482159 0.542163 -0.142577
Spine  14.0742 2.0482 -7.44788
Spine1  7.90966 1.95316 -2.81072
HEad  -3.68607 -7.83397 3.47366
LeftShoulder1  7.62115 -11.6849 -43.6586
LeftArm  -10.6723 23.7392 -24.9685
LeftForeArm  29.8912 -23.6645 -3.51132
LeftHand  -0.25398 0.0180481 5.50724
RightShoulder  5.41578 9.17394 36.7189
RightArm  -2.85855 -20.7136 37.1266
RightForeArm  -10.7908 17.0477 6.6172
RightHand  -8.26567 20.1255 -36.7439
LeftUpLeg  -10.935 14.9742 -10.2418
LeftLeg  22.8301 7.14694 3.66573
LeftFoot  -6.29187 -0.196601 5.30656
LeftToes  1.06246e-005 4.65854e-005 -8.18502e-006
362
root  11.0722 39.3998 -1.94112 -53.3659 -80.5248 47.3957
RightUpLeg  -10.5411 -0.758545 -13.1991
RightLeg  64.1314 -1.34595 -3.59528
RightFoot  10.2503 -0.840934 4.80929
RightToes  0.000482159 0.542163 -0.142577
Spine  14.5969 1.4065 -6.66829
Spine1  7.6995 1.1512 -1.92802
HEad  -3.54917 -6.23393 2.48822
LeftShoulder1  7.56185 -11.5751 -43.6326
LeftArm  -11.5457 22.7434 -25.132
LeftForeArm  30.9453 -26.3826 -4.0128
LeftHand  -0.25398 0.0180481 5.50724
RightShoulder  5.40218 9.14002 36.7255
RightArm  -1.73217 -22.6413 37.8997
RightForeArm  -9.4755 17.9602 6.30309
RightHand  -8.08343 19.7247 -36.5298
LeftUpLeg  -6.7363 16.537 -8.56035
LeftLeg  20.1159 7.00264 2.95491
LeftFoot  -7.46941 -0.108059 4.53511
LeftToes  1.06246e-005 4.65854e-005 -8.18502e-006
363
root  9.85102 39.671 -1.47807 -55.5498 -82.061 49.3669
RightUpLeg  -14.8323 -2.88278 -11.1969
RightLeg  62.0058 -1.72995 -4.08504
RightFoot  7.44358 -0.837823 5.36527
RightToes  0.000482159 0.542163 -0.142577
Spine  14.8905 0.872571 -5.75245
Spine1  7.60343 0.519114 -1.58781
HEad  -3.23462 -4.85094 1.80027
LeftShoulder1  7.52803 -11.5763 -43.4228
LeftArm  -12.5077 21.8606 -25.38
LeftForeArm  32.2579 -29.5283 -4.64089
LeftHand  -0.25398 0.0180481 5.50724
RightShoulder  5.35442 9.1548 36.3102
RightArm  -0.362915 -24.5251 38.724
RightForeArm  -8.72253 18.907 6.02575
RightHand  -7.94446 19.3877 -36.4044
LeftUpLeg  -3.03525 15.8571 -6.70506
LeftLeg  18.0671 9.00177 1.79042
LeftFoot  -8.83745 -0.0432917 4.43657
LeftToes  1.06246e-005 4.65854e-005 -8.18502e-006
364
root  8.59572 39.866 -1.03096 -59.5657 -83.4588 53.216
RightUpLeg  -18.1213 -4.50365 -8.86496
RightLeg  56.598 -1.85692 -3.47857
RightFoot  6.32414 -0.741258 5.03563
RightToes  0.000482159 0.542163 -0.142577
Spine  15.0711 0.460383 -5.01603
Spine1  7.46599 -0.0125846 -1.0444
HEad  -2.73208 -3.58148 1.27581
LeftShoulder1  7.48241 -11.5223 -43.3083
LeftArm  -13.2994 21.0892 -25.378
LeftForeArm  33.8141 -33.2445 -5.43266
LeftHand  -0.25398 0.0180481 5.50724
RightShoulder  5.30607 9.22052 35.7256
RightArm  1.17494 -26.0156 39.2531
RightForeArm  -8.2065 19.5337 5.87202
RightHand  -7.96226 19.3997 -36.4631
LeftUpLeg  0.73067 12.7267 -5.1768
LeftLeg  15.7437 13.2585 0.201342
LeftFoot  -9.56519 -0.0114355 4.45922
LeftToes  1.06246e-005 4.65854e-005 -8.18502e-006
365
root  7.33113 39.9533 -0.620063 -66.49 -84.4152 59.8828
RightUpLeg  -19.98 -6.11432 -6.66439
RightLeg  48.2604 -1.93896 -2.66541
RightFoot  4.57631 -0.565054 4.27266
RightToes  0.000482159 0.542163 -0.142577
Spine  15.4216 0.176088 -4.75871
Spine1  7.3039 -0.481156 -0.354653
HEad  -2.41912 -2.47548 0.968978
LeftShoulder1  7.44092 -11.4196 -43.3671
LeftArm  -13.6894 20.1964 -24.9074
LeftForeArm  35.2757 -37.2868 -6.38844
LeftHand  -0.25398 0.0180481 5.50724
RightShoulder  5.27582 9.24772 35.4059
RightArm  2.23833 -26.847 39.356
RightForeArm  -7.33253 19.7507 5.79549
RightHand  -8.06649 19.6093 -36.6157
LeftUpLeg  4.33549 9.45838 -4.55905
LeftLeg  13.5568 17.4093 -1.18985
LeftFoot  -10.4716 0.0340044 3.68892
LeftToes  1.06246e-005 4.65854e-005 -8.18502e-006
366
root  6.03064 39.8229 -0.256442 -75.7767 -84.6312 68.9014
RightUpLeg  -20.49 -8.73784 -4.92943
RightLeg  37.6 -1.91117 -1.83943
RightFoot  2.42205 -0.554779 4.73688
RightToes  0.000482159 0.542163 -0.142577
Spine  15.6908 -0.0107555 -5.18165
Spine1  7.25596 -0.864894 -0.023317
HEad  -2.45827 -1.6118 0.863119
LeftShoulder1  7.42593 -11.3975 -43.3427
LeftArm  -14.0375 19.1503 -24.3252
LeftForeArm  36.499 -41.115 -7.40547
LeftHand  -0.25398 0.0180481 5.50724
RightShoulder  5.24931 9.19646 35.3651
RightArm  2.33007 -26.9312 39.3234
RightForeArm  -6.27421 19.3739 5.85391
RightHand  -8.11493 19.6861 -36.7137
LeftUpLeg  7.09462 7.52721 -4.9682
LeftLeg  13.1364 20.0863 -1.69398
LeftFoot  -12.5692 0.105244 2.49022
LeftToes  1.06246e-005 4.65854e-005 -8.18502e-006
367
root  4.6622 39.6164 0.0805593 -81.3841 -84.4872 74.5102
RightUpLeg  -20.2726 -13.6743 -2.74535
RightLeg  25.1262 -0.914785 -0.942448
RightFoot  1.7222 -0.630444 5.59692
RightToes  0.000482159 0.542163 -0.142577
Spine  15.4125 -0.309021 -5.58485
Spine1  7.42991 -1.29148 0.312727
HEad  -2.51357 -0.988162 0.755043
LeftShoulder1  7.40513 -11.4602 -43.0225
LeftArm  -14.6715 18.1775 -24.0706
LeftForeArm  37.651 -44.2657 -8.3303
LeftHand  -0.25398 0.0180481 5.50724
RightShoulder  5.22419 9.12409 35.4023
RightArm  1.51818 -26.4586 39.3229
RightForeArm  -5.39636 18.357 6.11161
RightHand  -8.09022 19.6029 -36.7239
LeftUpLeg  9.52357 6.46557 -5.77939
LeftLeg  12.9588 21.6514 -1.79348
LeftFoot  -14.5368 0.142298 1.93472
LeftToes  1.06246e-005 4.65854e-005 -8.18502e-006
368
root  3.25102 39.4539 0.381277 -81.3181 -84.2604 74.8036
RightUpLeg  -19.2775 -16.4736 -1.49684
RightLeg  11.4171 -2.02291 1.39607
RightFoot  1.84042 -0.667133 5.87333
RightToes  0.000482159 0.542163 -0.142577
Spine  14.657 -0.686253 -5.80563
Spine1  7.69577 -1.83975 1.08667
HEad  -2.17296 -0.649146 0.474337
LeftShoulder1  7.3439 -11.5036 -42.5128
LeftArm  -15.3264 17.351 -24.1361
LeftForeArm  38.797 -46.4349 -9.00644
LeftHand  -0.25398 0.0180481 5.50724
RightShoulder  5.21957 9.07958 35.5097
RightArm  -0.00134637 -25.8848 39.2094
RightForeArm  -4.54094 17.1086 6.42942
RightHand  -8.08846 19.6003 -36.7201
LeftUpLeg  12.102 5.67678 -6.53919
LeftLeg  11.6664 22.4063 -2.22406
LeftFoot  -15.6046 0.153071 1.60562
LeftToes  1.06246e-005 4.65854e-005 -8.18502e-006
369
root  1.75445 39.1999 0.625318 -79.8084 -83.6111 73.607
RightUpLeg  -16.9234 -7.51624 -5.3077
RightLeg  -0.845548 -12.704 6.13815
RightFoot  0.844844 -0.695663 6.60058
RightToes  0.000482159 0.542163 -0.142577
Spine  13.8769 -0.874435 -6.51244
Spine1  7.6993 -2.28339 1.97083
HEad  -1.48428 -0.655606 -0.00371636
LeftShoulder1  7.27291 -11.4946 -42.1009
LeftArm  -15.6649 16.4926 -24.3157
LeftForeArm  39.7793 -47.5035 -9.33373
LeftHand  -0.25398 0.0180481 5.50724
RightShoulder  5.23287 9.05646 35.6882
RightArm  -1.93982 -25.469 38.9414
RightForeArm  -3.69563 16.1425 6.58166
RightHand  -8.16446 19.7831 -36.788
LeftUpLeg  14.578 5.47967 -7.27724
LeftLeg  11.0977 22.0137 -2.63762
LeftFoot  -17.0403 0.114174 0.289029
LeftToes  1.06246e-005 4.65854e-005 -8.18502e-006
370
root  0.175204 38.8632 0.832436 -79.9104 -82.9591 73.6655
RightUpLeg  -16.7199 -7.52047 -5.22373
RightLeg  -5.13908 -11.814 6.82225
RightFoot  -0.964406 -0.690135 7.45233
RightToes  0.000482159 0.542163 -0.142577
Spine  13.4415 -0.855737 -7.06171
Spine1  7.56297 -2.4627 2.66133
HEad  -0.855067 -0.86852 -0.643751
LeftShoulder1  7.25042 -11.4876 -41.9824
LeftArm  -15.8029 15.6271 -24.5499
LeftForeArm  40.4791 -47.6709 -9.34955
LeftHand  -0.25398 0.0180481 5.50724
RightShoulder  5.2394 9.04374 35.7805
RightArm  -3.78276 -24.8876 38.6247
RightForeArm  -3.21631 15.4679 6.60568
RightHand  -8.28072 20.0134 -36.9566
LeftUpLeg  17.0142 6.29421 -7.489
LeftLeg  11.9271 20.5592 -2.71633
LeftFoot  -18.6459 0.0276052 -1.34452
LeftToes  1.06246e-005 4.65854e-005 -8.18502e-006
371
root  -1.41032 38.6424 1.04079 -78.3469 -83.2616 71.9842
RightUpLeg  -17.4705 -7.23132 -4.4247
RightLeg  -2.50541 -12.5607 6.26246
RightFoot  -0.0520208 -0.471044 4.86984
RightToes  0.000482159 0.542163 -0.142577
Spine  13.2584 -0.965829 -5.91321
Spine1  7.81902 -2.65521 3.09567
HEad  -0.433696 -1.02329 -1.37938
LeftShoulder1  7.29748 -11.5267 -42.1565
LeftArm  -15.8864 15.1924 -24.7972
LeftForeArm  40.8835 -47.2432 -9.16219
LeftHand  -0.25398 0.0180481 5.50724
RightShoulder  5.24535 9.04208 35.8323
RightArm  -5.07289 -23.7049 38.1089
RightForeArm  -3.02725 14.7144 6.69088
RightHand  -8.39986 20.2124 -37.1759
LeftUpLeg  19.4833 8.88732 -5.92699
LeftLeg  13.0842 17.3058 -2.36915
LeftFoot  -18.9655 -0.0508628 -2.46171
LeftToes  1.06246e-005 4.65854e-005 -8.18502e-006
372
root  -3.09942 38.4952 1.26342 -68.481 -84.3019 61.9751
RightUpLeg  -19.1923 -8.66686 -2.54453
RightLeg  4.69753 -13.2103 4.71577
RightFoot  3.75815 0.152767 -0.828755
RightToes  0.000482159 0.542163 -0.142577
Spine  12.8477 -1.61623 -3.05695
Spine1  8.17712 -3.03675 2.90411
HEad  0.152573 -1.05929 -2.13355
LeftShoulder1  7.39574 -11.6134 -42.5018
LeftArm  -15.6453 15.5432 -25.027
LeftForeArm  40.9269 -46.1361 -8.76022
LeftHand  -0.25398 0.0180481 5.50724
RightShoulder  5.29238 9.04848 36.1773
RightArm  -5.89499 -22.0498 37.0744
RightForeArm  -2.46131 13.7354 6.83854
RightHand  -8.5391 20.4839 -37.375
LeftUpLeg  21.908 14.4374 -1.68669
LeftLeg  15.3465 10.0007 -1.09523
LeftFoot  -18.5749 -0.210505 -5.05776
LeftToes  1.06246e-005 4.65854e-005 -8.18502e-006
373
root  -4.87828 38.43 1.48961 -49.7214 -85.6148 42.9821
RightUpLeg  -20.7824 -14.6474 1.54811
RightLeg  11.691 -8.01794 2.21463
RightFoot  7.61402 1.10676 -6.38679
RightToes  0.000482159 0.542163 -0.142577
Spine  12.3871 -2.3967 1.04911
Spine1  8.30955 -3.20163 2.14471
HEad  1.28785 -1.16738 -2.91766
LeftShoulder1  7.52075 -11.7204 -42.944
LeftArm  -14.7695 16.4542 -25.4223
LeftForeArm  40.4528 -43.944 -8.04927
LeftHand  -0.25398 0.0180481 5.50724
RightShoulder  5.38782 9.08064 36.8103
RightArm  -6.76916 -20.3259 35.6475
RightForeArm  -1.24289 12.6616 6.90827
RightHand  -8.72717 20.8914 -37.5823
LeftUpLeg  23.6856 20.0195 3.82897
LeftLeg  19.0893 2.27928 0.622721
LeftFoot  -16.938 -0.386381 -10.3312
LeftToes  1.06246e-005 4.65854e-005 -8.18502e-006
374
root  -6.64083 38.4325 1.66494 -27.5277 -86.8355 20.5049
RightUpLeg  -21.8975 -19.6702 5.51155
RightLeg  17.6237 -2.04615 0.120897
RightFoot  7.29511 1.63879 -9.69336
RightToes  0.000482159 0.542163 -0.142577
Spine  12.1799 -2.5939 4.95191
Spine1  8.2281 -2.73338 1.45648
HEad  2.81786 -1.53647 -3.73374
LeftShoulder1  7.64572 -11.8022 -43.4536
LeftArm  -13.2892 17.3456 -26.2016
LeftForeArm  39.3452 -40.6811 -7.10535
LeftHand  -0.25398 0.0180481 5.50724
RightShoulder  5.47906 9.16983 37.2167
RightArm  -7.85971 -18.4413 34.4342
RightForeArm  -0.0407778 11.5701 6.87884
RightHand  -8.93498 21.2921 -37.8688
LeftUpLeg  22.3404 19.1876 6.27065
LeftLeg  26.1498 3.36887 2.30372
LeftFoot  -11.2891 0.0713943 -14.3399
LeftToes  1.06246e-005 4.65854e-005 -8.18502e-006
